<svg width="700" height="190" xmlns="http://www.w3.org/2000/svg" font-family="'Courier New', monospace">
  <rect width="700" height="190" fill="#0d1117" rx="8"/>

  <!-- column headers -->
  <rect x="20" y="12" width="660" height="26" fill="#00ff410d" rx="2"/>
  <text x="36" y="29" fill="#00ff41" font-size="11" letter-spacing="3" opacity="0.7">AREA</text>
  <text x="200" y="29" fill="#00ff41" font-size="11" letter-spacing="3" opacity="0.7">TARGET</text>
  <text x="560" y="29" fill="#00ff41" font-size="11" letter-spacing="3" opacity="0.7">STATUS</text>

  <line x1="20" y1="38" x2="680" y2="38" stroke="#00ff41" stroke-width="0.5" opacity="0.3"/>

  <text x="36" y="57" fill="#00cc33" font-size="12" letter-spacing="1">WEB</text>
  <text x="200" y="57" fill="#00cc33" font-size="12" letter-spacing="1">OWASP Top 10 / SQLi / XSS</text>
  <rect x="553" y="45" width="90" height="18" fill="#00ff4115" rx="2" stroke="#00ff4155" stroke-width="0.8"/>
  <text x="560" y="57" fill="#00ff41" font-size="11" letter-spacing="2">[ ACTIVE ]</text>

  <text x="36" y="79" fill="#00cc33" font-size="12" letter-spacing="1">NETWORK</text>
  <text x="200" y="79" fill="#00cc33" font-size="12" letter-spacing="1">Enumeration / Scanning</text>
  <rect x="553" y="67" width="90" height="18" fill="#00ff4115" rx="2" stroke="#00ff4155" stroke-width="0.8"/>
  <text x="560" y="79" fill="#00ff41" font-size="11" letter-spacing="2">[ ACTIVE ]</text>

  <text x="36" y="101" fill="#00cc33" font-size="12" letter-spacing="1">RECON</text>
  <text x="200" y="101" fill="#00cc33" font-size="12" letter-spacing="1">OSINT / Passive Intel</text>
  <rect x="553" y="89" width="90" height="18" fill="#00ff4115" rx="2" stroke="#00ff4155" stroke-width="0.8"/>
  <text x="560" y="101" fill="#00ff41" font-size="11" letter-spacing="2">[ ACTIVE ]</text>

  <text x="36" y="123" fill="#00cc33" font-size="12" letter-spacing="1">EXPLOITATION</text>
  <text x="200" y="123" fill="#00cc33" font-size="12" letter-spacing="1">Metasploit / Custom Scripts</text>
  <rect x="553" y="111" width="90" height="18" fill="#00ff4115" rx="2" stroke="#00ff4155" stroke-width="0.8"/>
  <text x="560" y="123" fill="#00ff41" font-size="11" letter-spacing="2">[ ACTIVE ]</text>

  <text x="36" y="145" fill="#00cc33" font-size="12" letter-spacing="1">CTF</text>
  <text x="200" y="145" fill="#00cc33" font-size="12" letter-spacing="1">HackTheBox / TryHackMe</text>
  <rect x="553" y="133" width="90" height="18" fill="#00ff4115" rx="2" stroke="#00ff4155" stroke-width="0.8"/>
  <text x="560" y="145" fill="#00ff41" font-size="11" letter-spacing="2">[ ACTIVE ]</text>

  <text x="36" y="167" fill="#00cc33" font-size="12" letter-spacing="1">REVERSE ENG.</text>
  <text x="200" y="167" fill="#00cc33" font-size="12" letter-spacing="1">Binary Analysis</text>
  <rect x="545" y="155" width="108" height="18" fill="#f0c04011" rx="2" stroke="#f0c04088" stroke-width="0.8"/>
  <text x="552" y="167" fill="#f0c040" font-size="11" letter-spacing="2">[ LEARNING ]</text>

  <line x1="20" y1="180" x2="680" y2="180" stroke="#00ff41" stroke-width="0.5" opacity="0.2"/>
</svg>
